<svg width="131.91" height="73.3" viewBox="0 0 131.91 73.3" xmlns="http://www.w3.org/2000/svg" xmlns:xlink="http://www.w3.org/1999/xlink" ><defs><style>.cls-1{fill:url(#linear-gradient);}.cls-2{fill:url(#linear-gradient-2);}.cls-3{fill:url(#linear-gradient-3);}.cls-4{fill:none;stroke-width:4.3px;stroke:url(#linear-gradient-4);}.cls-5{fill:#29292e;}</style><linearGradient id="linear-gradient" x1="67.97" y1="57.83" x2="80.05" y2="23.71" gradientTransform="matrix(1, 0, 0, -1, 0, 74.3)" gradientUnits="userSpaceOnUse"><stop offset="0" stop-color="#485bff"/><stop offset="1" stop-color="#ff59f8"/></linearGradient><linearGradient id="linear-gradient-2" x1="81.28" y1="62.54" x2="93.36" y2="28.43" xlink:href="#linear-gradient"/><linearGradient id="linear-gradient-3" x1="96.47" y1="67.92" x2="108.55" y2="33.81" xlink:href="#linear-gradient"/><linearGradient id="linear-gradient-4" x1="65.46" y1="79.27" x2="125.67" y2="4.72" xlink:href="#linear-gradient"/></defs><g id="Layer_2" data-name="Layer 2"><g id="Layer_1-2" data-name="Layer 1"><path class="cls-1" d="M81.65,24,78.58,39.42H74.34l.29-1.52a7.2,7.2,0,0,1-8.06.92,6.33,6.33,0,0,1-2.44-2.38,7.42,7.42,0,0,1-.89-3.7,9.38,9.38,0,0,1,1.12-4.58,8.42,8.42,0,0,1,3.1-3.22,8.19,8.19,0,0,1,4.3-1.17q3.55,0,5,2.32l.4-2.09ZM71.27,36a4.24,4.24,0,0,0,4-2.43,5.89,5.89,0,0,0,.57-2.64,3.3,3.3,0,0,0-.94-2.49,3.49,3.49,0,0,0-2.59-.92,4.35,4.35,0,0,0-4,2.43,5.89,5.89,0,0,0-.58,2.64,3.39,3.39,0,0,0,.92,2.5A3.59,3.59,0,0,0,71.27,36Z"/><path class="cls-2" d="M87.2,39.65a16.32,16.32,0,0,1-3.82-.43,8.32,8.32,0,0,1-2.78-1.17l1.72-3.24a8.71,8.71,0,0,0,2.44,1.06,10.87,10.87,0,0,0,2.92.4A5.27,5.27,0,0,0,90,35.9a1.22,1.22,0,0,0,.74-1.12A.88.88,0,0,0,90,34a13.52,13.52,0,0,0-2.13-.55,20.25,20.25,0,0,1-2.75-.69,4.63,4.63,0,0,1-1.86-1.2,3.32,3.32,0,0,1-.78-2.32,4.57,4.57,0,0,1,2.12-4,10,10,0,0,1,5.62-1.43,14.1,14.1,0,0,1,3.13.34,9.59,9.59,0,0,1,2.58.95l-1.61,3.27a8.4,8.4,0,0,0-4.55-1.18,4.78,4.78,0,0,0-2.24.43,1.26,1.26,0,0,0-.75,1.09.94.94,0,0,0,.66.89,15.42,15.42,0,0,0,2.21.57,18.1,18.1,0,0,1,2.67.69A4.23,4.23,0,0,1,94.19,32,3.17,3.17,0,0,1,95,34.26a4.49,4.49,0,0,1-2.18,4A10.13,10.13,0,0,1,87.2,39.65Z"/><path class="cls-3" d="M107.16,30.71l5.3,8.71h-5.19l-3.67-6-2.72,2.27-.75,3.72H95.66l4.25-21.27h4.47L102,30.05,109.4,24h5.82Z"/><path class="cls-4" d="M56.65,15.05V7.88a5.74,5.74,0,0,1,5.73-5.73H124a5.74,5.74,0,0,1,5.73,5.73V48A5.74,5.74,0,0,1,124,53.76H114l3.36,15.65A1.44,1.44,0,0,1,115,70.76L99.66,56.63H62.38a5.74,5.74,0,0,1-5.73-5.74V48"/><path class="cls-5" d="M7.47,38.48a11.16,11.16,0,0,1-.31,2.93,4.89,4.89,0,0,1-.94,1.88,3.8,3.8,0,0,1-1.57,1.16,5.79,5.79,0,0,1-2.22.39,6.94,6.94,0,0,1-1.21-.1,3.14,3.14,0,0,1-.72-.2.63.63,0,0,1-.31-.26,1,1,0,0,1-.12-.35c0-.13,0-.28,0-.45s0-.38,0-.64,0-.59,0-.8a1.67,1.67,0,0,1,.09-.51.79.79,0,0,1,.16-.28.31.31,0,0,1,.22-.08l.35,0a3.52,3.52,0,0,0,.58,0,2,2,0,0,0,.77-.13,1.29,1.29,0,0,0,.54-.44,2.16,2.16,0,0,0,.31-.78,7.73,7.73,0,0,0,.1-1.5V22.64a.54.54,0,0,1,.1-.3.78.78,0,0,1,.35-.22A2.31,2.31,0,0,1,4.25,22a10,10,0,0,1,1,0,9.68,9.68,0,0,1,1,0,2.47,2.47,0,0,1,.67.15.78.78,0,0,1,.35.22.47.47,0,0,1,.1.3ZM7.8,17.41a2.48,2.48,0,0,1-.53,1.81,2.94,2.94,0,0,1-2,.49,3,3,0,0,1-2-.48,2.35,2.35,0,0,1-.51-1.74,2.43,2.43,0,0,1,.53-1.81,2.91,2.91,0,0,1,2-.51,2.87,2.87,0,0,1,2,.49A2.39,2.39,0,0,1,7.8,17.41Z"/><path class="cls-5" d="M26.38,38a.53.53,0,0,1-.09.3.72.72,0,0,1-.3.21,2.19,2.19,0,0,1-.57.13,7.24,7.24,0,0,1-.88,0,7.93,7.93,0,0,1-.93,0,2.21,2.21,0,0,1-.56-.13.75.75,0,0,1-.29-.21.52.52,0,0,1-.08-.3V36.19a9.76,9.76,0,0,1-2.6,2.07,5.75,5.75,0,0,1-2.72.69,6.15,6.15,0,0,1-2.66-.52A4.49,4.49,0,0,1,13,37a5.58,5.58,0,0,1-1-2.08A12.69,12.69,0,0,1,11.73,32v-9.4a.49.49,0,0,1,.09-.3.69.69,0,0,1,.34-.22,3,3,0,0,1,.68-.13,10.12,10.12,0,0,1,1,0,10.33,10.33,0,0,1,1,0,3.07,3.07,0,0,1,.66.13.73.73,0,0,1,.35.22.44.44,0,0,1,.11.3v8.68a8.59,8.59,0,0,0,.15,1.84,3.2,3.2,0,0,0,.48,1.09,2.27,2.27,0,0,0,.8.71,2.6,2.6,0,0,0,1.15.25,2.79,2.79,0,0,0,1.66-.61,9.63,9.63,0,0,0,1.78-1.75V22.61a.44.44,0,0,1,.1-.3.69.69,0,0,1,.34-.22,3.05,3.05,0,0,1,.67-.13,10.08,10.08,0,0,1,1.05,0,10.33,10.33,0,0,1,1.05,0,2.84,2.84,0,0,1,.65.13.69.69,0,0,1,.34.22.44.44,0,0,1,.11.3Z"/><path class="cls-5" d="M41.55,33.63a5.22,5.22,0,0,1-.49,2.3,4.5,4.5,0,0,1-1.39,1.67,6.13,6.13,0,0,1-2.12,1A9.71,9.71,0,0,1,34.9,39a10.79,10.79,0,0,1-1.64-.13,10.9,10.9,0,0,1-1.41-.33,8.6,8.6,0,0,1-1-.4,2.38,2.38,0,0,1-.6-.39,1.18,1.18,0,0,1-.3-.57,5.3,5.3,0,0,1-.1-1.14,6,6,0,0,1,0-.81,1.74,1.74,0,0,1,.1-.48.42.42,0,0,1,.17-.24.53.53,0,0,1,.26-.06,1.23,1.23,0,0,1,.56.22c.25.14.55.3.92.47a10.21,10.21,0,0,0,1.28.48,5.64,5.64,0,0,0,1.66.23,4.21,4.21,0,0,0,1-.12,2.71,2.71,0,0,0,.79-.35,1.55,1.55,0,0,0,.51-.57,1.8,1.8,0,0,0,.17-.79,1.35,1.35,0,0,0-.32-.89,2.82,2.82,0,0,0-.84-.64A8.85,8.85,0,0,0,35,31.92c-.44-.16-.9-.34-1.36-.53a13.2,13.2,0,0,1-1.36-.67,5.69,5.69,0,0,1-1.19-.93,4.19,4.19,0,0,1-.84-1.33,4.76,4.76,0,0,1-.32-1.86,4.66,4.66,0,0,1,.43-2A4.32,4.32,0,0,1,31.58,23a5.91,5.91,0,0,1,2-1,8.76,8.76,0,0,1,2.61-.36,9.14,9.14,0,0,1,1.4.1,9.46,9.46,0,0,1,1.23.26,5.48,5.48,0,0,1,.93.33,3.59,3.59,0,0,1,.54.31,1.11,1.11,0,0,1,.24.26,1.25,1.25,0,0,1,.1.31q0,.18.06.45a6.12,6.12,0,0,1,0,.66c0,.31,0,.56,0,.76a2.07,2.07,0,0,1-.09.46.41.41,0,0,1-.16.24.48.48,0,0,1-.24.06,1.2,1.2,0,0,1-.48-.18c-.22-.12-.49-.25-.82-.39a9.42,9.42,0,0,0-1.14-.39,5.48,5.48,0,0,0-1.47-.18,3.86,3.86,0,0,0-1,.12,1.92,1.92,0,0,0-.7.35,1.38,1.38,0,0,0-.41.52,1.44,1.44,0,0,0-.14.65,1.27,1.27,0,0,0,.33.89,2.8,2.8,0,0,0,.86.64,11.86,11.86,0,0,0,1.21.52c.45.16.91.33,1.38.52a13.21,13.21,0,0,1,1.37.66,5.62,5.62,0,0,1,1.22.93,4.5,4.5,0,0,1,.86,1.32A4.59,4.59,0,0,1,41.55,33.63Z"/><path class="cls-5" d="M53.5,36.45a5.51,5.51,0,0,1-.1,1.16,1.27,1.27,0,0,1-.25.57,1.21,1.21,0,0,1-.45.29,4.94,4.94,0,0,1-.71.23,7.06,7.06,0,0,1-.88.14,7.46,7.46,0,0,1-1,.06,6.78,6.78,0,0,1-2.24-.33,3.77,3.77,0,0,1-1.57-1,4.13,4.13,0,0,1-.91-1.71,8.9,8.9,0,0,1-.29-2.45V25.53H43.3c-.22,0-.38-.13-.5-.4a3.89,3.89,0,0,1-.17-1.35c0-.33,0-.62,0-.85a2.37,2.37,0,0,1,.13-.54.64.64,0,0,1,.22-.28.51.51,0,0,1,.3-.09h1.83V18.6a.54.54,0,0,1,.09-.31.71.71,0,0,1,.34-.24,2.56,2.56,0,0,1,.68-.13,9.76,9.76,0,0,1,1-.05,10.32,10.32,0,0,1,1.06.05,2.39,2.39,0,0,1,.66.13.76.76,0,0,1,.34.24.49.49,0,0,1,.11.31V22h3.34a.53.53,0,0,1,.3.09.63.63,0,0,1,.21.28,1.94,1.94,0,0,1,.13.54,6.7,6.7,0,0,1,0,.85,3.62,3.62,0,0,1-.18,1.35.54.54,0,0,1-.5.4H49.47v7.22a3.61,3.61,0,0,0,.39,1.88,1.55,1.55,0,0,0,1.41.63,2.9,2.9,0,0,0,.62-.06,3,3,0,0,0,.5-.14l.36-.13a.65.65,0,0,1,.26-.06.36.36,0,0,1,.2.06.45.45,0,0,1,.15.24c0,.12.06.28.09.49A5.5,5.5,0,0,1,53.5,36.45Z"/></g></g></svg>