<svg id="Layer_1" data-name="Layer 1" xmlns="http://www.w3.org/2000/svg" xmlns:xlink="http://www.w3.org/1999/xlink" viewBox="0 0 131.82 73.3"><defs><style>.cls-1{fill:url(#linear-gradient);}.cls-2{fill:url(#linear-gradient-2);}.cls-3{fill:url(#linear-gradient-3);}.cls-4{fill:none;stroke-width:4.3px;stroke:url(#linear-gradient-4);}.cls-5{fill:#29292e;}</style><linearGradient id="linear-gradient" x1="69.7" y1="58.68" x2="81.78" y2="24.56" gradientTransform="matrix(1, 0, 0, -1, 0, 76)" gradientUnits="userSpaceOnUse"><stop offset="0" stop-color="#485bff"/><stop offset="1" stop-color="#ff59f8"/></linearGradient><linearGradient id="linear-gradient-2" x1="83.01" y1="63.39" x2="95.09" y2="29.28" xlink:href="#linear-gradient"/><linearGradient id="linear-gradient-3" x1="98.2" y1="68.77" x2="110.28" y2="34.66" xlink:href="#linear-gradient"/><linearGradient id="linear-gradient-4" x1="67.19" y1="80.12" x2="127.4" y2="5.57" xlink:href="#linear-gradient"/></defs><path class="cls-1" d="M83.38,24.85,80.31,40.27H76.07l.28-1.52a7.18,7.18,0,0,1-8,.92,6.27,6.27,0,0,1-2.44-2.38,7.42,7.42,0,0,1-.89-3.7A9.28,9.28,0,0,1,66.09,29a8.35,8.35,0,0,1,3.1-3.22,8.19,8.19,0,0,1,4.3-1.17q3.56,0,5,2.32l.41-2.09ZM73,36.8a4.42,4.42,0,0,0,2.35-.63A4.53,4.53,0,0,0,77,34.37a5.89,5.89,0,0,0,.57-2.64,3.35,3.35,0,0,0-1-2.5A3.49,3.49,0,0,0,74,28.32a4.35,4.35,0,0,0-4,2.43,5.76,5.76,0,0,0-.58,2.64,3.39,3.39,0,0,0,.92,2.5A3.59,3.59,0,0,0,73,36.8Z" transform="translate(-1.82 -0.85)"/><path class="cls-2" d="M88.92,40.5a16.3,16.3,0,0,1-3.81-.43,8.32,8.32,0,0,1-2.78-1.17l1.72-3.24a8.71,8.71,0,0,0,2.44,1.06,10.87,10.87,0,0,0,2.92.4,5.27,5.27,0,0,0,2.27-.37,1.24,1.24,0,0,0,.74-1.12.87.87,0,0,0-.66-.83,13.33,13.33,0,0,0-2.12-.55,20.25,20.25,0,0,1-2.75-.69A4.63,4.63,0,0,1,85,32.36,3.32,3.32,0,0,1,84.25,30a4.57,4.57,0,0,1,2.12-4A10,10,0,0,1,92,24.62a14.16,14.16,0,0,1,3.13.34,9.59,9.59,0,0,1,2.58.95l-1.61,3.27A8.41,8.41,0,0,0,91.53,28a4.74,4.74,0,0,0-2.23.43,1.26,1.26,0,0,0-.75,1.09.94.94,0,0,0,.66.89,15.42,15.42,0,0,0,2.21.57,18.1,18.1,0,0,1,2.67.69,4.29,4.29,0,0,1,1.83,1.18,3.16,3.16,0,0,1,.77,2.26,4.49,4.49,0,0,1-2.17,4A10.15,10.15,0,0,1,88.92,40.5Z" transform="translate(-1.82 -0.85)"/><path class="cls-3" d="M108.89,31.56l5.3,8.71H109l-3.67-6-2.72,2.27-.75,3.72H97.39L101.63,19h4.48l-2.38,11.9,7.39-6h5.82Z" transform="translate(-1.82 -0.85)"/><path class="cls-4" d="M58.38,15.9V8.73A5.73,5.73,0,0,1,64.11,3h61.65a5.74,5.74,0,0,1,5.73,5.73V48.88a5.74,5.74,0,0,1-5.73,5.73h-10l3.35,15.65a1.43,1.43,0,0,1-2.37,1.35L101.38,57.48H64.11a5.73,5.73,0,0,1-5.73-5.74V48.88" transform="translate(-1.82 -0.85)"/><path class="cls-5" d="M9.31,40.2A11.69,11.69,0,0,1,9,43.14,5.11,5.11,0,0,1,8.06,45a3.9,3.9,0,0,1-1.58,1.16,5.85,5.85,0,0,1-2.23.39,5.91,5.91,0,0,1-1.2-.1,3.1,3.1,0,0,1-.73-.2A.63.63,0,0,1,2,46a1.6,1.6,0,0,1-.12-.35c0-.13,0-.28,0-.45s0-.38,0-.64,0-.59,0-.81a2.38,2.38,0,0,1,.09-.5A.79.79,0,0,1,2.1,43a.29.29,0,0,1,.22-.09l.36,0a3.4,3.4,0,0,0,.57,0A2.05,2.05,0,0,0,4,42.84a1.14,1.14,0,0,0,.53-.44,2.18,2.18,0,0,0,.32-.77A8.77,8.77,0,0,0,5,40.12V24.34a.47.47,0,0,1,.1-.3.78.78,0,0,1,.35-.22,2.31,2.31,0,0,1,.65-.15,10,10,0,0,1,1-.05,10,10,0,0,1,1.06.05,2.48,2.48,0,0,1,.66.15A.73.73,0,0,1,9.2,24a.48.48,0,0,1,.11.3Zm.32-21.1a2.46,2.46,0,0,1-.52,1.81,3,3,0,0,1-2,.5,3,3,0,0,1-2-.48,2.35,2.35,0,0,1-.52-1.74,2.44,2.44,0,0,1,.54-1.82,2.89,2.89,0,0,1,2-.51,2.91,2.91,0,0,1,2,.49A2.44,2.44,0,0,1,9.63,19.1Z" transform="translate(-1.82 -0.85)"/><path class="cls-5" d="M28.24,39.69a.53.53,0,0,1-.09.3.58.58,0,0,1-.3.21,2.19,2.19,0,0,1-.57.13,7,7,0,0,1-.89.05,7.45,7.45,0,0,1-.92-.05,2.11,2.11,0,0,1-.56-.13.51.51,0,0,1-.29-.21.53.53,0,0,1-.09-.3V37.91A9.73,9.73,0,0,1,21.94,40a5.83,5.83,0,0,1-2.74.69,6.07,6.07,0,0,1-2.66-.52,4.49,4.49,0,0,1-1.74-1.41,5.74,5.74,0,0,1-1-2.08,12.85,12.85,0,0,1-.28-2.94V24.31a.49.49,0,0,1,.09-.3.69.69,0,0,1,.34-.22,3.16,3.16,0,0,1,.68-.13,10.24,10.24,0,0,1,1,0,10.08,10.08,0,0,1,1,0,3.05,3.05,0,0,1,.67.13.78.78,0,0,1,.35.22.44.44,0,0,1,.1.3V33a7.83,7.83,0,0,0,.16,1.84,3.24,3.24,0,0,0,.47,1.1,2.11,2.11,0,0,0,.81.7,2.47,2.47,0,0,0,1.15.25,2.82,2.82,0,0,0,1.66-.6,10.06,10.06,0,0,0,1.79-1.76V24.31A.49.49,0,0,1,24,24a.73.73,0,0,1,.35-.22,2.83,2.83,0,0,1,.66-.13,10.33,10.33,0,0,1,1,0,10.08,10.08,0,0,1,1.05,0,2.83,2.83,0,0,1,.66.13.69.69,0,0,1,.34.22.44.44,0,0,1,.11.3Z" transform="translate(-1.82 -0.85)"/><path class="cls-5" d="M43.43,35.34a5.24,5.24,0,0,1-.49,2.31,4.62,4.62,0,0,1-1.39,1.68,6.4,6.4,0,0,1-2.12,1,9.79,9.79,0,0,1-2.66.34,9.65,9.65,0,0,1-1.64-.13,10.52,10.52,0,0,1-1.41-.33,6.74,6.74,0,0,1-1-.4,2.69,2.69,0,0,1-.61-.39,1.26,1.26,0,0,1-.29-.57,4.76,4.76,0,0,1-.1-1.15c0-.33,0-.6,0-.8a2.21,2.21,0,0,1,.1-.48.47.47,0,0,1,.18-.24.49.49,0,0,1,.25-.06,1.33,1.33,0,0,1,.57.21,8.4,8.4,0,0,0,.92.48,10.21,10.21,0,0,0,1.28.48,5.73,5.73,0,0,0,1.67.22,4.13,4.13,0,0,0,1-.12,2.58,2.58,0,0,0,.79-.34,1.39,1.39,0,0,0,.51-.57,1.67,1.67,0,0,0,.17-.79,1.28,1.28,0,0,0-.32-.89,2.84,2.84,0,0,0-.84-.65,10.37,10.37,0,0,0-1.19-.51c-.44-.17-.9-.34-1.36-.54a11.43,11.43,0,0,1-1.36-.67,4.9,4.9,0,0,1-1.19-.93,4,4,0,0,1-.85-1.33,5,5,0,0,1-.32-1.86,4.86,4.86,0,0,1,.43-2,4.51,4.51,0,0,1,1.24-1.58,6,6,0,0,1,2-1A8.8,8.8,0,0,1,38,23.32a9.36,9.36,0,0,1,1.41.11,9.46,9.46,0,0,1,1.23.26,5.48,5.48,0,0,1,.93.33,3.59,3.59,0,0,1,.54.31,1.11,1.11,0,0,1,.24.26,1.25,1.25,0,0,1,.1.31q0,.18.06.45a6.12,6.12,0,0,1,0,.66,7.56,7.56,0,0,1,0,.76,2.18,2.18,0,0,1-.09.47.41.41,0,0,1-.16.23.48.48,0,0,1-.24.06,1.1,1.1,0,0,1-.48-.18c-.22-.12-.5-.25-.82-.39a11.68,11.68,0,0,0-1.14-.38,5.11,5.11,0,0,0-1.48-.19,3.73,3.73,0,0,0-1,.12,2,2,0,0,0-.71.35A1.51,1.51,0,0,0,35.86,28a1.28,1.28,0,0,0,.33.9,3,3,0,0,0,.86.64,10,10,0,0,0,1.21.51c.46.16.92.34,1.38.53a12.44,12.44,0,0,1,1.38.66,5.62,5.62,0,0,1,1.22.93,4.5,4.5,0,0,1,.86,1.32A4.62,4.62,0,0,1,43.43,35.34Z" transform="translate(-1.82 -0.85)"/><path class="cls-5" d="M55.39,38.17a5.64,5.64,0,0,1-.09,1.16,1.39,1.39,0,0,1-.25.57,1.53,1.53,0,0,1-.46.3,4.61,4.61,0,0,1-.71.22q-.41.09-.87.15c-.32,0-.64,0-1,0a6.82,6.82,0,0,1-2.24-.33,3.62,3.62,0,0,1-1.57-1,4.14,4.14,0,0,1-.92-1.71A9.3,9.3,0,0,1,47,35.12V27.24H45.19a.55.55,0,0,1-.5-.41,3.62,3.62,0,0,1-.18-1.35,6.53,6.53,0,0,1,.05-.84,2,2,0,0,1,.13-.55.63.63,0,0,1,.21-.28.53.53,0,0,1,.3-.09H47V20.29a.5.5,0,0,1,.1-.31.65.65,0,0,1,.34-.23,2.51,2.51,0,0,1,.67-.14,10.33,10.33,0,0,1,1,0c.42,0,.77,0,1.06,0a2.35,2.35,0,0,1,.66.14.79.79,0,0,1,.35.23.57.57,0,0,1,.1.31v3.43H54.7a.54.54,0,0,1,.31.09.71.71,0,0,1,.21.28,2,2,0,0,1,.13.55,6.74,6.74,0,0,1,0,.84,3.66,3.66,0,0,1-.17,1.35.55.55,0,0,1-.5.41H51.36v7.22a3.54,3.54,0,0,0,.4,1.89,1.52,1.52,0,0,0,1.41.63,2.9,2.9,0,0,0,.62-.06,4.19,4.19,0,0,0,.49-.14l.36-.14a.74.74,0,0,1,.27-.06.36.36,0,0,1,.2.06.45.45,0,0,1,.15.25c0,.12.06.28.09.49A5.72,5.72,0,0,1,55.39,38.17Z" transform="translate(-1.82 -0.85)"/></svg>